<?xml version="1.0"?>
<svg width="16" height="16" xmlns="http://www.w3.org/2000/svg" xmlns:svg="http://www.w3.org/2000/svg" enable-background="new 0 0 141.7362061 26.8393459" version="1.1" xml:space="preserve">
 <style type="text/css">.st0{fill:#16AB03;}
	.st1{fill:#5E33BF;}</style>

 <g class="layer">
  <title>Layer 1</title>
  <g id="svg_2">
   <path class="st0" d="m5.26,12.58c0.26,0.68 0.57,1.35 0.94,1.99c0.27,0.46 0.56,0.9 0.88,1.33c3.15,-0.77 5.94,-2.42 8.11,-4.69c-0.5,-1.18 -1.17,-2.26 -1.98,-3.24c-1.98,2.38 -4.77,4.06 -7.95,4.6z" id="svg_3"/>
   <path class="st1" d="m7.08,0.06c-0.76,1.01 -1.37,2.12 -1.81,3.33c3.18,0.53 5.98,2.21 7.95,4.59c0.81,-0.97 1.48,-2.05 1.98,-3.23c-2.17,-2.27 -4.97,-3.92 -8.12,-4.69z" id="svg_4"/>
   <path d="m5.26,12.58c-0.96,-2.55 -1.1,-5.33 -0.38,-8.01c0.11,-0.4 0.23,-0.8 0.38,-1.18c-0.71,-0.12 -1.45,-0.19 -2.2,-0.19c-0.53,0 -1.06,0.03 -1.58,0.1c-0.88,3.02 -0.91,6.26 0,9.38c0.52,0.06 1.05,0.09 1.58,0.09c0.75,0 1.49,-0.06 2.2,-0.18z" id="svg_5"/>
  </g>
 </g>
</svg>